ffmpeg version 2025-07-10-git-82aeee3c19-essentials_build-www.gyan.dev Copyright (c) 2000-2025 the FFmpeg developers
  built with gcc 15.1.0 (Rev6, Built by MSYS2 project)
  configuration: --enable-gpl --enable-version3 --enable-static --disable-w32threads --disable-autodetect --enable-fontconfig --enable-iconv --enable-gnutls --enable-libxml2 --enable-gmp --enable-bzlib --enable-lzma --enable-zlib --enable-libsrt --enable-libssh --enable-libzmq --enable-avisynth --enable-sdl2 --enable-libwebp --enable-libx264 --enable-libx265 --enable-libxvid --enable-libaom --enable-libopenjpeg --enable-libvpx --enable-mediafoundation --enable-libass --enable-libfreetype --enable-libfribidi --enable-libharfbuzz --enable-libvidstab --enable-libvmaf --enable-libzimg --enable-amf --enable-cuda-llvm --enable-cuvid --enable-dxva2 --enable-d3d11va --enable-d3d12va --enable-ffnvcodec --enable-libvpl --enable-nvdec --enable-nvenc --enable-vaapi --enable-openal --enable-libgme --enable-libopenmpt --enable-libopencore-amrwb --enable-libmp3lame --enable-libtheora --enable-libvo-amrwbenc --enable-libgsm --enable-libopencore-amrnb --enable-libopus --enable-libspeex --enable-libvorbis --enable-librubberband
  libavutil      60.  4.101 / 60.  4.101
  libavcodec     62.  6.100 / 62.  6.100
  libavformat    62.  1.102 / 62.  1.102
  libavdevice    62.  0.100 / 62.  0.100
  libavfilter    11.  1.100 / 11.  1.100
  libswscale      9.  0.100 /  9.  0.100
  libswresample   6.  0.100 /  6.  0.100
[mov,mp4,m4a,3gp,3g2,mj2 @ 00000229056142c0] Auto-inserting h264_mp4toannexb bitstream filter
Input #0, concat, from 'temp.txt':
  Duration: N/A, start: -0.021333, bitrate: 12379 kb/s
  Stream #0:0(und): Video: h264 (Main) (avc1 / 0x31637661), yuv420p(progressive), 1080x1920 [SAR 1:1 DAR 9:16], 12211 kb/s, 60 fps, 60 tbr, 15360 tbn
    Metadata:
      handler_name    : VideoHandler
      vendor_id       : [0][0][0][0]
      encoder         : Lavc62.6.100 h264_nvenc
  Stream #0:1(und): Audio: aac (LC) (mp4a / 0x6134706D), 48000 Hz, stereo, fltp, 168 kb/s, start -0.021333
    Metadata:
      handler_name    : SoundHandler
      vendor_id       : [0][0][0][0]
Stream mapping:
  Stream #0:0 -> #0:0 (copy)
  Stream #0:1 -> #0:1 (copy)
Output #0, mp4, to 'temp.mp4':
  Metadata:
    encoder         : Lavf62.1.102
  Stream #0:0(und): Video: h264 (Main) (avc1 / 0x31637661), yuv420p(progressive), 1080x1920 [SAR 1:1 DAR 9:16], q=2-31, 12211 kb/s, 60 fps, 60 tbr, 15360 tbn
    Metadata:
      handler_name    : VideoHandler
      vendor_id       : [0][0][0][0]
      encoder         : Lavc62.6.100 h264_nvenc
  Stream #0:1(und): Audio: aac (LC) (mp4a / 0x6134706D), 48000 Hz, stereo, fltp, 168 kb/s
    Metadata:
      handler_name    : SoundHandler
      vendor_id       : [0][0][0][0]
Press [q] to stop, [?] for help
[mov,mp4,m4a,3gp,3g2,mj2 @ 00000229056dd800] Auto-inserting h264_mp4toannexb bitstream filter
    Last message repeated 4 times
[out#0/mp4 @ 0000022906051200] video:63317KiB audio:979KiB subtitle:0KiB other streams:0KiB global headers:0KiB muxing overhead: 0.123416%
frame= 2880 fps=0.0 q=-1.0 Lsize=   64375KiB time=00:00:47.97 bitrate=10993.2kbits/s speed=400x elapsed=0:00:00.11    
